# xmcd CD database file
#
# Track frame offsets:
#	150
#	33712
#	54450
#
# Disc length: 1171 seconds
#
# Revision: 1
# Processed by: cddbd v1.5.1PL0 Copyright (c) Steve Scherf et al.
# Submitted via: CDex 1.51
#
DISCID=22049103
DTITLE=L☆IS - Running On
DYEAR=1900
DGENRE=JPop
TTITLE0=Running On (15 Millions collect MIX)
TTITLE1=赤い花
TTITLE2=Running On (Original Karaoke)
EXTD=
EXTT0=
EXTT1=
EXTT2=
PLAYORDER=
